# xmcd CD database file
#
# Track frame offsets:
#	150
#	13707
#	21390
#	31460
#	44737
#	58620
#	76277
#	85315
#	94152
#	99327
#	116727
#	124627
#
# Disc length: 1771 seconds
#
# Revision: 1
# Processed by: cddbd v1.5.2PL0 Copyright (c) Steve Scherf et al.
# Submitted via: CDex 1.70beta2
#
DISCID=9906e90c
DTITLE=Johnny Cash - Ring Of Fire  -  Disc 3  [Goldies]
DYEAR=1999
DGENRE=Country
TTITLE0=I Walk The Line
TTITLE1=Hey, Porter
TTITLE2=Goodbye Little Darlin'
TTITLE3=Big River II
TTITLE4=Bandana
TTITLE5=Ballad Of The Harp Weaver
TTITLE6=Luther Played The Boogie
TTITLE7=Pickin' Time
TTITLE8=Cry, Cry, Cry
TTITLE9=The Ballad Of Ira Hayes
TTITLE10=I Got Stripes
TTITLE11=Five Feet High And Rising
EXTD=YEAR: 1999
EXTT0=
EXTT1=
EXTT2=
EXTT3=
EXTT4=
EXTT5=
EXTT6=
EXTT7=
EXTT8=
EXTT9=
EXTT10=
EXTT11=
PLAYORDER=
